# xmcd CD database file
#
# Track frame offsets:
#	150
#	20147
#	39577
#	59320
#	79850
#	98822
#	119422
#	139105
#
# Disc length: 2109 seconds
#
# Revision: 0
# Processed by: cddbd v1.4PL0 Copyright (c) Steve Scherf et al.
# Submitted via: CDex 1.50beta10
#
DISCID=6a083b08
DTITLE=Jet Stream - Outuvspace
DYEAR=1990
DGENRE=Jazz
TTITLE0=Space The Final Frontier
TTITLE1=That Groove Thang
TTITLE2=Diane's Love Song
TTITLE3=Waitless
TTITLE4=The Natives Are Restless
TTITLE5=Another Place/Another Time
TTITLE6=Miles in Space
TTITLE7=To The Batmobile Robin
EXTD=YEAR: 1990
EXTT0=
EXTT1=
EXTT2=
EXTT3=
EXTT4=
EXTT5=
EXTT6=
EXTT7=
PLAYORDER=
